#!OML:ASF X:\für Bonn\!DataBase\2005_08_10_Bjorn_Final\c3d\bjorn.ASF
:FULLY-SPECIFIED
:DEGREES
197
root -16.9986 19.201 -1.16785 1801.3 -70.3064 -360.627
lowerback -6.60568 5.59629 -2.9983
upperback 7.65651 8.47991 -7.57295
thorax 12.8929 4.12282 -5.17762
lowerneck -0.897276 -10.6869 4.12695
upperneck 7.45616 -14.8662 4.92965
head 2.62529 -7.18776 0.507487
rclavicle -1.24042e-013 6.36111e-014
rhumerus 21.12 -19.9403 -80.94
rradius 105.06
rwrist -17.7539
rhand -39.4621 19.0768
rfingers 7.12502
rthumb -12.4492 -10.5325
lclavicle -1.24042e-013 6.36111e-014
lhumerus -22.7997 -1.97808 81.1243
lradius 24.4013
lwrist -18.6607
lhand -20.0634 -5.89919
lfingers 7.12502
lthumb 6.27858 23.9878
rfemur 2.35743 9.16109 19.3984
rtibia 27.1317
rfoot 3.65827 37.0036
rtoes 9.25047
lfemur -22.5309 -3.89823 -16.7492
ltibia 27.4156
lfoot 7.51858 -23.887
ltoes 14.4188
198
root -16.9235 19.1847 -1.20922 1801.28 -69.5562 -360.669
lowerback -6.55235 5.49563 -2.81534
upperback 7.74025 8.31568 -7.39843
thorax 12.9364 4.0546 -5.11718
lowerneck -0.75428 -10.3815 4.22968
upperneck 7.58305 -14.4254 4.56331
head 2.59836 -6.97159 0.397227
rclavicle 0 3.49861e-014
rhumerus 19.4498 -18.5123 -80.3606
rradius 106.104
rwrist -15.954
rhand -39.3962 19.4949
rfingers 7.12502
rthumb -12.3856 -10.1181
lclavicle 0 3.49861e-014
lhumerus -22.7302 -2.38657 81.6914
lradius 24.7638
lwrist -18.2686
lhand -20.0645 -6.15392
lfingers 7.12502
lthumb 6.27758 23.7331
rfemur 2.41939 9.62832 19.5629
rtibia 26.7671
rfoot 4.17151 37.5562
rtoes 11.698
lfemur -22.8962 -4.24665 -16.7488
ltibia 27.4745
lfoot 8.01207 -24.1603
ltoes 14.4372
199
root -16.8451 19.1669 -1.25319 1801.23 -68.772 -360.703
lowerback -6.4405 5.39666 -2.639
upperback 7.82034 8.14667 -7.2004
thorax 12.9333 3.98264 -5.03213
lowerneck -0.714473 -10.0504 4.29349
upperneck 7.83345 -13.9588 4.1323
head 2.6314 -6.73901 0.262362
rclavicle -1.19271e-014 -3.18055e-015
rhumerus 17.7607 -16.9983 -79.7184
rradius 107.07
rwrist -14.2973
rhand -39.3289 19.8357
rfingers 7.12502
rthumb -12.3208 -9.78133
lclavicle -1.19271e-014 -3.18055e-015
lhumerus -22.6899 -2.82847 82.2958
lradius 25.1462
lwrist -17.9291
lhand -20.0593 -6.36602
lfingers 7.12502
lthumb 6.28255 23.5208
rfemur 2.4835 10.1041 19.7408
rtibia 26.4227
rfoot 4.64953 38.0541
rtoes 14.1811
lfemur -23.2599 -4.55175 -16.7598
ltibia 27.5318
lfoot 8.51132 -24.4629
ltoes 14.42
200
root -16.7638 19.1491 -1.29703 1801.25 -67.9516 -360.779
lowerback -6.31086 5.28663 -2.40274
upperback 7.89384 7.95577 -7.02123
thorax 12.9222 3.90748 -5.00669
lowerneck -0.763016 -9.67367 4.48655
upperneck 8.11716 -13.4327 3.58795
head 2.67631 -6.47477 0.0681679
rclavicle -2.70347e-014 2.06736e-014
rhumerus 16.095 -15.324 -79.1458
rradius 107.935
rwrist -12.7846
rhand -39.2837 20.2329
rfingers 7.12502
rthumb -12.2772 -9.38674
lclavicle -2.70347e-014 2.06736e-014
lhumerus -22.6615 -3.30501 82.8644
lradius 25.5634
lwrist -17.5964
lhand -20.0617 -6.5501
lfingers 7.12502
lthumb 6.28027 23.3368
rfemur 2.50251 10.5089 19.9202
rtibia 26.1133
rfoot 5.08382 38.5644
rtoes 16.3954
lfemur -23.6591 -4.87673 -16.7578
ltibia 27.5764
lfoot 9.01404 -24.7619
ltoes 14.228
201
root -16.6805 19.1299 -1.34358 1801.19 -67.105 -360.805
lowerback -6.13708 5.16717 -2.20682
upperback 7.96755 7.75142 -6.8254
thorax 12.8735 3.82102 -4.94582
lowerneck -0.818722 -9.26735 4.65371
upperneck 8.44993 -12.8652 3.00261
head 2.7433 -6.19118 -0.137215
rclavicle 9.62118e-014 -9.38264e-014
rhumerus 14.44 -13.4624 -78.5766
rradius 108.685
rwrist -11.3531
rhand -39.2875 20.6567
rfingers 7.12502
rthumb -12.2808 -8.9627
lclavicle 9.62118e-014 -9.38264e-014
lhumerus -22.7026 -3.95017 83.4717
lradius 26.0412
lwrist -17.114
lhand -20.1448 -6.6128
lfingers 7.12502
lthumb 6.19999 23.2765
rfemur 2.53766 10.9245 20.0973
rtibia 25.8277
rfoot 5.39993 39.026
rtoes 18.609
lfemur -24.0346 -5.24334 -16.7683
ltibia 27.6066
lfoot 9.53607 -24.9639
ltoes 14.2052
202
root -16.5956 19.1105 -1.39006 1801.23 -66.2424 -360.926
lowerback -5.96638 5.04439 -1.93822
upperback 8.04524 7.53639 -6.63659
thorax 12.8423 3.73691 -4.93455
lowerneck -0.940149 -8.8078 4.90191
upperneck 8.82569 -12.2293 2.35362
head 2.83391 -5.8725 -0.379891
rclavicle -8.74653e-015 1.11319e-014
rhumerus 12.8156 -11.4726 -78.1152
rradius 109.314
rwrist -10.0239
rhand -39.3946 21.134
rfingers 7.12502
rthumb -12.3841 -8.47913
lclavicle -8.74653e-015 1.11319e-014
lhumerus -22.7389 -4.54001 84.0257
lradius 26.5319
lwrist -16.7214
lhand -20.1827 -6.67376
lfingers 7.12502
lthumb 6.16343 23.2166
rfemur 2.5441 11.2515 20.2961
rtibia 25.5697
rfoot 5.70446 39.4818
rtoes 20.6719
lfemur -24.4186 -5.6455 -16.728
ltibia 27.611
lfoot 10.1383 -25.1112
ltoes 14.2305
